<svg width='200' height='200' fill="#000000" xmlns="http://www.w3.org/2000/svg" xmlns:xlink="http://www.w3.org/1999/xlink" version="1.1" x="0px" y="0px" viewBox="0 0 100 100" enable-background="new 0 0 100 100" xml:space="preserve"><path fill="#000000" d="M57.006,35.851l-9.179,31.85l-6.554-17.039H24.12c0.603,0.825,1.264,1.629,2.026,2.391  c8.282,8.282,21.533,21.538,23.852,23.859c2.321-2.32,15.57-15.577,23.853-23.859c0.762-0.762,1.423-1.566,2.026-2.391H62.637  L57.006,35.851z"/><path d="M4.835,49.537v1.124H24.12c-0.27-0.37-0.524-0.744-0.763-1.124H4.835z"/><path d="M95.165,49.537H76.641c-0.239,0.38-0.493,0.755-0.763,1.124h19.288V49.537z"/><path d="M74.367,28.104c-6.747-6.712-17.657-6.683-24.368,0.065c-6.711-6.748-17.621-6.777-24.368-0.065  c-5.744,5.713-6.692,14.396-2.274,21.433h18.688l5.628,14.634L56.859,32.3l6.553,17.237h13.229  C81.059,42.5,80.111,33.817,74.367,28.104z"/></svg>